<?xml version="1.0" encoding="UTF-8"?>
<svg xmlns="http://www.w3.org/2000/svg" width="82" height="87" viewBox="0 0 82 87" role="img" aria-label="favicon">

<path d="M 41.33 53.33 L 41.00 53.67 L 41.00 54.00 L 40.67 54.33 L 40.67 54.67 L 40.67 55.00 L 40.67 55.33 L 40.33 55.67 L 40.33 56.00 L 40.33 56.33 L 40.33 56.67 L 40.33 57.00 L 40.33 57.33 L 40.33 57.67 L 40.67 58.00 L 40.67 58.33 L 40.67 58.67 L 40.67 59.00 L 40.67 59.33 L 40.67 59.67 L 40.67 60.00 L 40.67 60.33 L 41.00 60.67 L 41.00 61.00 L 41.00 61.33 L 41.00 61.67 L 41.00 62.00 L 41.33 62.33 L 41.33 62.67 L 41.67 63.00 L 42.00 63.33 L 42.33 63.67 L 42.33 64.00 L 42.67 64.00 L 43.00 64.33 L 43.33 64.67 L 43.67 64.67 L 44.00 65.00 L 44.33 65.33 L 44.67 65.33 L 45.00 65.67 L 45.33 66.00 L 45.67 66.33 L 46.00 66.67 L 46.00 67.00 L 46.00 67.33 L 46.00 67.67 L 46.00 68.00 L 46.00 68.33 L 46.00 68.67 L 46.00 69.00 L 46.33 69.33 L 46.33 69.67 L 46.33 70.00 L 46.33 70.33 L 46.33 70.67 L 46.33 71.00 L 46.33 71.33 L 46.33 71.67 L 46.33 72.00 L 46.33 72.33 L 46.33 72.67 L 46.33 73.00 L 46.33 73.33 L 46.33 73.67 L 46.33 74.00 L 46.33 74.33 L 46.33 74.67 L 46.33 75.00 L 46.33 75.33 L 46.33 75.67 L 46.33 76.00 L 46.33 76.33 L 46.33 76.67 L 46.33 77.00 L 46.33 77.33 L 46.33 77.67 L 46.00 78.00 L 45.67 78.00 L 45.33 78.00 L 45.00 78.00 L 44.67 78.00 L 44.33 78.00 L 44.00 78.33 L 43.67 78.33 L 43.33 78.33 L 43.00 78.33 L 42.67 78.33 L 42.33 78.33 L 42.00 78.67 L 41.67 78.67 L 41.33 78.67 L 41.00 79.00 L 40.67 79.00 L 40.33 79.00 L 40.00 79.00 L 39.67 79.00 L 39.33 79.00 L 39.00 79.33 L 38.67 79.33 L 38.33 79.33 L 38.00 79.67 L 37.67 79.67 L 37.33 80.00 L 37.00 80.00 L 36.67 80.00 L 36.33 80.00 L 36.00 80.33 L 35.67 80.33 L 35.33 80.67 L 35.00 81.00 L 34.67 81.00 L 34.33 81.00 L 34.00 81.00 L 33.67 81.33 L 33.33 81.33 L 33.00 81.67 L 32.67 81.67 L 32.33 82.00 L 32.00 82.00 L 31.67 82.00 L 31.33 82.00 L 31.00 82.00 L 30.67 82.33 L 30.33 82.33 L 30.00 82.33 L 29.67 82.67 L 29.33 82.67 L 29.00 83.00 L 28.67 83.00 L 28.33 83.00 L 28.00 83.00 L 27.67 83.00 L 27.33 83.00 L 27.00 83.00 L 26.67 83.33 L 26.33 83.33 L 26.00 83.33 L 25.67 83.33 L 25.33 83.33 L 25.00 83.33 L 24.67 83.67 L 24.33 83.67 L 24.00 83.67 L 23.67 83.67 L 23.33 83.67 L 23.00 83.67 L 22.67 83.67 L 22.33 83.67 L 22.00 83.67 L 21.67 83.67 L 21.33 83.67 L 21.00 83.67 L 20.67 83.67 L 20.33 83.67 L 20.00 83.67 L 19.67 83.33 L 19.33 83.33 L 19.00 83.33 L 18.67 83.33 L 18.33 83.00 L 18.00 83.00 L 17.67 83.33 L 17.33 83.33 L 17.00 83.67 L 17.00 84.00 L 17.33 84.33 L 17.67 84.67 L 18.00 85.00 L 18.33 85.00 L 18.67 85.00 L 19.00 85.33 L 19.33 85.33 L 19.67 85.33 L 20.00 85.33 L 20.33 85.33 L 20.67 85.67 L 21.00 85.67 L 21.33 86.00 L 21.67 86.00 L 22.00 86.00 L 22.33 86.00 L 22.67 86.33 L 23.00 86.33 L 23.33 86.33 L 23.67 86.33 L 24.00 86.33 L 24.33 86.67 L 24.67 86.67 L 25.00 86.67 L 25.33 86.67 L 25.67 86.67 L 26.00 86.67 L 26.33 86.67 L 26.67 86.67 L 27.00 86.67 L 27.33 86.67 L 27.67 86.67 L 28.00 86.67 L 28.33 86.67 L 28.67 86.67 L 29.00 86.67 L 29.33 86.67 L 29.67 86.67 L 30.00 86.67 L 30.33 86.67 L 30.67 86.33 L 31.00 86.33 L 31.33 86.33 L 31.67 86.33 L 32.00 86.33 L 32.33 86.33 L 32.67 86.33 L 33.00 86.00 L 33.33 86.00 L 33.67 86.00 L 34.00 85.67 L 34.33 85.67 L 34.67 85.67 L 35.00 85.33 L 35.33 85.33 L 35.67 85.33 L 36.00 85.33 L 36.33 85.00 L 36.67 85.00 L 37.00 84.67 L 37.33 84.67 L 37.67 84.33 L 38.00 84.33 L 38.33 84.33 L 38.67 84.33 L 39.00 84.33 L 39.33 84.00 L 39.67 84.00 L 40.00 84.00 L 40.33 83.67 L 40.67 83.67 L 41.00 83.67 L 41.33 83.33 L 41.67 83.33 L 42.00 83.33 L 42.33 83.33 L 42.67 83.33 L 43.00 83.33 L 43.33 83.33 L 43.67 83.00 L 44.00 83.00 L 44.33 83.00 L 44.67 83.00 L 45.00 83.00 L 45.33 83.00 L 45.67 83.00 L 46.00 83.00 L 46.33 83.00 L 46.67 83.00 L 47.00 83.00 L 47.33 83.00 L 47.67 83.00 L 48.00 83.00 L 48.33 83.00 L 48.67 83.00 L 49.00 83.00 L 49.33 83.00 L 49.67 83.00 L 50.00 83.00 L 50.33 83.00 L 50.67 83.00 L 51.00 83.00 L 51.33 83.33 L 51.67 83.33 L 52.00 83.33 L 52.33 83.33 L 52.67 83.33 L 53.00 83.33 L 53.33 83.33 L 53.67 83.67 L 54.00 83.67 L 54.33 84.00 L 54.67 84.00 L 55.00 84.33 L 55.33 84.33 L 55.67 84.33 L 56.00 84.33 L 56.33 84.67 L 56.67 84.67 L 57.00 85.00 L 57.33 85.00 L 57.67 85.33 L 58.00 85.33 L 58.33 85.33 L 58.67 85.33 L 59.00 85.67 L 59.33 85.67 L 59.67 86.00 L 60.00 86.00 L 60.33 86.00 L 60.67 86.33 L 61.00 86.33 L 61.33 86.33 L 61.67 86.33 L 62.00 86.67 L 62.33 86.67 L 62.67 86.67 L 63.00 86.67 L 63.33 86.67 L 63.67 86.67 L 64.00 86.67 L 64.33 86.67 L 64.67 86.67 L 65.00 86.67 L 65.33 86.67 L 65.67 86.67 L 66.00 86.67 L 65.67 86.67 L 65.33 86.67 L 65.00 86.67 L 64.67 86.33 L 64.33 86.33 L 64.00 86.33 L 63.67 86.33 L 63.33 86.33 L 63.00 86.33 L 62.67 86.00 L 62.33 86.00 L 62.00 86.00 L 61.67 86.00 L 61.33 86.00 L 61.00 85.67 L 60.67 85.67 L 60.33 85.67 L 60.00 85.33 L 59.67 85.33 L 59.33 85.33 L 59.00 85.00 L 58.67 85.00 L 58.33 84.67 L 58.00 84.67 L 57.67 84.33 L 57.33 84.33 L 57.00 84.33 L 56.67 84.00 L 56.33 84.00 L 56.00 84.00 L 55.67 83.67 L 55.33 83.67 L 55.00 83.33 L 54.67 83.33 L 54.33 83.33 L 54.00 83.33 L 53.67 83.00 L 53.33 83.00 L 53.00 83.00 L 52.67 83.00 L 52.33 82.67 L 52.00 82.67 L 51.67 82.67 L 51.33 82.67 L 51.00 82.33 L 50.67 82.33 L 50.33 82.33 L 50.00 82.33 L 49.67 82.33 L 49.33 82.33 L 49.00 82.33 L 48.67 82.33 L 48.33 82.33 L 48.00 82.33 L 47.67 82.33 L 47.33 82.33 L 47.00 82.33 L 46.67 82.33 L 46.33 82.33 L 46.00 82.33 L 45.67 82.33 L 45.33 82.33 L 45.00 82.33 L 44.67 82.33 L 44.33 82.33 L 44.00 82.33 L 43.67 82.67 L 43.33 82.67 L 43.00 82.67 L 42.67 82.67 L 42.33 82.67 L 42.00 83.00 L 41.67 83.00 L 41.33 83.00 L 41.00 83.00 L 40.67 83.00 L 40.33 83.33 L 40.00 83.33 L 39.67 83.33 L 39.33 83.33 L 39.00 83.67 L 38.67 83.67 L 38.33 84.00 L 38.00 84.00 L 37.67 84.00 L 37.33 84.33 L 37.00 84.33 L 36.67 84.33 L 36.33 84.33 L 36.00 84.67 L 35.67 84.67 L 35.33 85.00 L 35.00 85.00 L 34.67 85.00 L 34.33 85.33 L 34.00 85.33 L 33.67 85.33 L 33.33 85.33 L 33.00 85.67 L 32.67 85.67 L 32.33 85.67 L 32.00 86.00 L 31.67 86.00 L 31.33 86.00 L 31.00 86.00 L 30.67 86.00 L 30.33 86.00 L 30.00 86.00 L 29.67 86.00 L 29.33 86.00 L 29.00 86.00 L 28.67 86.00 L 28.33 86.00 L 28.00 86.00 L 27.67 86.00 L 27.33 86.00 L 27.00 86.00 L 26.67 86.00 L 26.33 86.00 L 26.00 86.00 L 25.67 86.00 L 25.33 86.00 L 25.00 86.00 L 24.67 86.00 L 24.33 86.00 L 24.00 86.00 L 23.67 86.00 L 23.33 86.00 L 23.00 85.67 L 22.67 85.67 L 22.33 85.67 L 22.00 85.67 L 21.67 85.33 L 21.33 85.33 L 21.00 85.33 L 20.67 85.33 L 20.33 85.00 L 20.00 84.67 L 20.00 84.33 L 20.33 84.00 L 20.67 84.00 L 21.00 84.00 L 21.33 84.00 L 21.67 84.00 L 22.00 84.00 L 22.33 84.00 L 22.67 84.00 L 23.00 84.00 L 23.33 84.00 L 23.67 84.00 L 24.00 84.00 L 24.33 84.00 L 24.67 84.00 L 25.00 84.00 L 25.33 84.00 L 25.67 84.00 L 26.00 84.00 L 26.33 84.00 L 26.67 84.00 L 27.00 84.00 L 27.33 83.67 L 27.67 83.67 L 28.00 83.67 L 28.33 83.33 L 28.67 83.33 L 29.00 83.33 L 29.33 83.33 L 29.67 83.00 L 30.00 83.00 L 30.33 83.00 L 30.67 83.00 L 31.00 83.00 L 31.33 82.67 L 31.67 82.67 L 32.00 82.33 L 32.33 82.33 L 32.67 82.33 L 33.00 82.00 L 33.33 82.00 L 33.67 82.00 L 34.00 81.67 L 34.33 81.67 L 34.67 81.33 L 35.00 81.33 L 35.33 81.00 L 35.67 81.00 L 36.00 81.00 L 36.33 80.67 L 36.67 80.67 L 37.00 80.33 L 37.33 80.33 L 37.67 80.33 L 38.00 80.33 L 38.33 80.00 L 38.67 80.00 L 39.00 80.00 L 39.33 79.67 L 39.67 79.67 L 40.00 79.67 L 40.33 79.33 L 40.67 79.33 L 41.00 79.33 L 41.33 79.33 L 41.67 79.00 L 42.00 79.00 L 42.33 79.00 L 42.67 79.00 L 43.00 79.00 L 43.33 79.00 L 43.67 79.00 L 44.00 79.00 L 44.33 78.67 L 44.67 78.67 L 45.00 78.67 L 45.33 78.67 L 45.67 78.67 L 46.00 78.67 L 46.33 78.67 L 46.67 78.33 L 47.00 78.00 L 47.00 77.67 L 47.00 77.33 L 47.00 77.00 L 47.00 76.67 L 47.00 76.33 L 47.00 76.00 L 47.00 75.67 L 47.00 75.33 L 47.00 75.00 L 47.00 74.67 L 47.00 74.33 L 47.00 74.00 L 47.00 73.67 L 47.00 73.33 L 47.00 73.00 L 47.00 72.67 L 47.00 72.33 L 47.00 72.00 L 47.00 71.67 L 47.00 71.33 L 47.00 71.00 L 47.00 70.67 L 47.00 70.33 L 47.00 70.00 L 47.00 69.67 L 47.00 69.33 L 47.00 69.00 L 47.00 68.67 L 47.00 68.33 L 47.00 68.00 L 46.67 67.67 L 46.67 67.33 L 46.67 67.00 L 46.67 66.67 L 46.33 66.33 L 46.00 66.00 L 45.67 65.67 L 45.33 65.33 L 45.00 65.00 L 44.67 65.00 L 44.33 64.67 L 44.00 64.33 L 43.67 64.33 L 43.33 64.00 L 43.00 63.67 L 42.67 63.33 L 42.33 63.00 L 42.00 62.67 L 42.00 62.33 L 41.67 62.00 L 41.67 61.67 L 41.33 61.33 L 41.33 61.00 L 41.33 60.67 L 41.33 60.33 L 41.33 60.00 L 41.00 59.67 L 41.00 59.33 L 41.00 59.00 L 41.00 58.67 L 41.00 58.33 L 41.00 58.00 L 41.33 57.67 L 41.67 57.67 L 42.00 58.00 L 42.33 58.33 L 42.33 58.67 L 42.33 59.00 L 42.67 59.33 L 42.67 59.67 L 43.00 60.00 L 43.33 60.33 L 43.33 60.67 L 43.67 61.00 L 44.00 61.00 L 44.33 61.33 L 44.67 61.33 L 45.00 61.33 L 45.33 61.67 L 45.67 61.67 L 46.00 61.67 L 46.33 62.00 L 46.67 62.00 L 47.00 62.00 L 47.33 62.00 L 47.67 62.00 L 48.00 62.00 L 48.33 62.00 L 48.67 62.00 L 49.00 62.00 L 49.33 62.00 L 49.67 62.00 L 50.00 62.00 L 50.33 62.00 L 50.67 61.67 L 51.00 61.67 L 51.33 61.33 L 51.67 61.33 L 52.00 61.00 L 52.33 61.00 L 52.67 60.67 L 53.00 60.33 L 53.33 60.00 L 53.33 59.67 L 53.67 59.33 L 54.00 59.00 L 54.00 58.67 L 54.33 58.33 L 54.67 58.33 L 55.00 58.67 L 55.00 59.00 L 55.00 59.33 L 55.00 59.67 L 55.00 60.00 L 55.00 60.33 L 54.67 60.67 L 54.67 61.00 L 54.67 61.33 L 54.33 61.67 L 54.33 62.00 L 54.33 62.33 L 54.00 62.67 L 53.67 63.00 L 53.33 63.33 L 53.33 63.67 L 53.00 64.00 L 52.67 64.33 L 52.33 64.33 L 52.00 64.67 L 51.67 65.00 L 51.33 65.00 L 51.00 65.33 L 50.67 65.33 L 50.33 65.67 L 50.00 66.00 L 50.00 66.33 L 49.67 66.67 L 49.33 67.00 L 49.33 67.33 L 49.33 67.67 L 49.33 68.00 L 49.33 68.33 L 49.33 68.67 L 49.33 69.00 L 49.33 69.33 L 49.33 69.67 L 49.33 70.00 L 49.33 70.33 L 49.33 70.67 L 49.33 71.00 L 49.33 71.33 L 49.33 71.67 L 49.33 72.00 L 49.33 72.33 L 49.33 72.67 L 49.33 73.00 L 49.33 73.33 L 49.33 73.67 L 49.33 74.00 L 49.33 74.33 L 49.33 74.67 L 49.33 75.00 L 49.33 75.33 L 49.33 75.67 L 49.33 76.00 L 49.33 76.33 L 49.33 76.67 L 49.33 77.00 L 49.33 77.33 L 49.33 77.67 L 49.33 78.00 L 49.33 78.33 L 49.67 78.33 L 50.00 78.67 L 50.33 78.67 L 50.67 79.00 L 51.00 79.00 L 51.33 79.00 L 51.67 79.00 L 52.00 79.00 L 52.33 79.00 L 52.67 79.00 L 53.00 79.00 L 53.33 79.00 L 53.67 79.33 L 54.00 79.33 L 54.33 79.33 L 54.67 79.33 L 55.00 79.33 L 55.33 79.67 L 55.67 79.67 L 56.00 80.00 L 56.33 80.00 L 56.67 80.00 L 57.00 80.00 L 57.33 80.33 L 57.67 80.33 L 58.00 80.33 L 58.33 80.67 L 58.67 80.67 L 59.00 81.00 L 59.33 81.00 L 59.67 81.00 L 60.00 81.33 L 60.33 81.33 L 60.67 81.67 L 61.00 81.67 L 61.33 82.00 L 61.67 82.00 L 62.00 82.33 L 62.33 82.33 L 62.67 82.33 L 63.00 82.67 L 63.33 82.67 L 63.67 83.00 L 64.00 83.00 L 64.33 83.00 L 64.67 83.33 L 65.00 83.33 L 65.33 83.33 L 65.67 83.33 L 66.00 83.33 L 66.33 83.67 L 66.67 83.67 L 67.00 83.67 L 67.33 84.00 L 67.67 84.00 L 68.00 84.00 L 68.33 84.00 L 68.67 84.00 L 69.00 84.00 L 69.33 84.33 L 69.67 84.33 L 70.00 84.33 L 70.33 84.33 L 70.67 84.33 L 71.00 84.33 L 71.33 84.33 L 71.67 84.33 L 72.00 84.33 L 72.33 84.33 L 72.67 84.33 L 73.00 84.33 L 73.33 84.33 L 73.67 84.33 L 74.00 84.33 L 74.33 84.33 L 74.67 84.33 L 75.00 84.33 L 75.33 84.67 L 75.33 85.00 L 75.00 85.33 L 74.67 85.33 L 74.33 85.33 L 74.00 85.67 L 73.67 85.67 L 73.33 85.67 L 73.00 86.00 L 72.67 86.00 L 72.33 86.00 L 72.00 86.00 L 71.67 86.00 L 71.33 86.33 L 71.00 86.33 L 70.67 86.33 L 70.33 86.33 L 70.00 86.33 L 69.67 86.33 L 69.33 86.33 L 69.00 86.67 L 68.67 86.67 L 68.33 86.67 L 68.00 86.67 L 67.67 86.67 L 68.00 86.67 L 68.33 86.67 L 68.67 86.67 L 69.00 86.67 L 69.33 86.67 L 69.67 86.67 L 70.00 86.67 L 70.33 86.67 L 70.67 86.67 L 71.00 86.67 L 71.33 86.67 L 71.67 86.67 L 72.00 86.67 L 72.33 86.67 L 72.67 86.33 L 73.00 86.33 L 73.33 86.33 L 73.67 86.33 L 74.00 86.00 L 74.33 86.00 L 74.67 85.67 L 75.00 85.67 L 75.33 85.33 L 75.67 85.33 L 76.00 85.33 L 76.33 85.33 L 76.67 85.33 L 77.00 85.00 L 77.33 85.00 L 77.67 84.67 L 78.00 84.33 L 78.33 84.33 L 78.67 84.00 L 78.67 83.67 L 78.67 83.33 L 78.33 83.33 L 78.00 83.33 L 77.67 83.00 L 77.33 83.00 L 77.00 83.33 L 76.67 83.33 L 76.33 83.33 L 76.00 83.33 L 75.67 83.67 L 75.33 83.67 L 75.00 83.67 L 74.67 83.67 L 74.33 83.67 L 74.00 83.67 L 73.67 83.67 L 73.33 83.67 L 73.00 84.00 L 72.67 84.00 L 72.33 84.00 L 72.00 84.00 L 71.67 84.00 L 71.33 83.67 L 71.00 83.67 L 70.67 83.67 L 70.33 83.67 L 70.00 83.67 L 69.67 83.67 L 69.33 83.67 L 69.00 83.67 L 68.67 83.33 L 68.33 83.33 L 68.00 83.33 L 67.67 83.33 L 67.33 83.00 L 67.00 83.00 L 66.67 83.00 L 66.33 83.00 L 66.00 83.00 L 65.67 83.00 L 65.33 83.00 L 65.00 82.67 L 64.67 82.67 L 64.33 82.33 L 64.00 82.33 L 63.67 82.33 L 63.33 82.00 L 63.00 82.00 L 62.67 82.00 L 62.33 82.00 L 62.00 81.67 L 61.67 81.33 L 61.33 81.33 L 61.00 81.00 L 60.67 81.00 L 60.33 81.00 L 60.00 81.00 L 59.67 80.67 L 59.33 80.33 L 59.00 80.33 L 58.67 80.00 L 58.33 80.00 L 58.00 80.00 L 57.67 80.00 L 57.33 79.67 L 57.00 79.67 L 56.67 79.33 L 56.33 79.33 L 56.00 79.33 L 55.67 79.00 L 55.33 79.00 L 55.00 79.00 L 54.67 79.00 L 54.33 79.00 L 54.00 78.67 L 53.67 78.67 L 53.33 78.67 L 53.00 78.67 L 52.67 78.33 L 52.33 78.33 L 52.00 78.33 L 51.67 78.33 L 51.33 78.33 L 51.00 78.33 L 50.67 78.33 L 50.33 78.00 L 50.00 77.67 L 49.67 77.33 L 49.67 77.00 L 50.00 76.67 L 50.00 76.33 L 50.00 76.00 L 50.00 75.67 L 50.00 75.33 L 50.00 75.00 L 50.00 74.67 L 50.00 74.33 L 50.00 74.00 L 50.00 73.67 L 50.00 73.33 L 50.00 73.00 L 50.00 72.67 L 50.00 72.33 L 50.00 72.00 L 50.00 71.67 L 50.00 71.33 L 50.00 71.00 L 50.00 70.67 L 50.00 70.33 L 50.00 70.00 L 50.00 69.67 L 50.00 69.33 L 50.00 69.00 L 50.00 68.67 L 50.00 68.33 L 50.00 68.00 L 50.00 67.67 L 50.00 67.33 L 50.00 67.00 L 50.33 66.67 L 50.67 66.33 L 51.00 66.00 L 51.33 65.67 L 51.67 65.33 L 52.00 65.33 L 52.33 65.00 L 52.67 64.67 L 53.00 64.33 L 53.33 64.33 L 53.67 64.00 L 54.00 63.67 L 54.00 63.33 L 54.33 63.00 L 54.67 62.67 L 54.67 62.33 L 55.00 62.00 L 55.00 61.67 L 55.33 61.33 L 55.33 61.00 L 55.33 60.67 L 55.33 60.33 L 55.33 60.00 L 55.33 59.67 L 55.33 59.33 L 55.33 59.00 L 55.33 58.67 L 55.67 58.33 L 55.67 58.00 L 55.67 57.67 L 55.67 57.33 L 55.67 57.00 L 55.67 56.67 L 55.67 56.33 L 55.67 56.00 L 55.33 55.67 L 55.33 55.33 L 55.33 55.00 L 55.33 54.67 L 55.33 54.33 L 55.33 54.00 L 55.33 53.67 L 55.00 53.33 L 54.67 53.33 L 54.33 53.33 L 54.00 53.67 L 54.00 54.00 L 54.00 54.33 L 54.00 54.67 L 54.00 55.00 L 54.00 55.33 L 54.00 55.67 L 54.00 56.00 L 54.00 56.33 L 54.00 56.67 L 54.00 57.00 L 54.00 57.33 L 54.00 57.67 L 54.00 58.00 L 53.67 58.33 L 53.67 58.67 L 53.33 59.00 L 53.00 59.33 L 53.00 59.67 L 52.67 60.00 L 52.33 60.33 L 52.00 60.33 L 51.67 60.67 L 51.33 61.00 L 51.00 61.00 L 50.67 61.00 L 50.33 61.00 L 50.00 61.33 L 49.67 61.33 L 49.33 61.33 L 49.00 61.33 L 48.67 61.33 L 48.33 61.33 L 48.00 61.33 L 47.67 61.33 L 47.33 61.33 L 47.00 61.33 L 46.67 61.33 L 46.33 61.33 L 46.00 61.00 L 45.67 61.00 L 45.33 61.00 L 45.00 61.00 L 44.67 61.00 L 44.33 60.67 L 44.00 60.33 L 43.67 60.00 L 43.33 59.67 L 43.00 59.33 L 43.00 59.00 L 42.67 58.67 L 42.67 58.33 L 42.67 58.00 L 42.33 57.67 L 42.33 57.33 L 42.33 57.00 L 42.33 56.67 L 42.33 56.33 L 42.33 56.00 L 42.33 55.67 L 42.33 55.33 L 42.33 55.00 L 42.33 54.67 L 42.33 54.33 L 42.33 54.00 L 42.00 53.67 L 42.00 53.33 L 41.67 53.33 Z M 71.67 25.67 L 71.33 26.00 L 71.00 26.00 L 70.67 26.00 L 70.33 26.00 L 70.00 26.00 L 69.67 26.00 L 69.33 26.00 L 69.00 26.33 L 68.67 26.33 L 68.33 26.33 L 68.00 26.67 L 67.67 26.67 L 67.33 26.67 L 67.00 27.00 L 66.67 27.00 L 66.33 27.00 L 66.00 27.33 L 65.67 27.33 L 65.33 27.33 L 65.00 27.67 L 64.67 28.00 L 64.33 28.00 L 64.00 28.00 L 63.67 28.33 L 63.33 28.33 L 63.00 28.67 L 62.67 28.67 L 62.33 29.00 L 62.00 29.00 L 61.67 29.33 L 61.33 29.33 L 61.00 29.67 L 60.67 29.67 L 60.33 30.00 L 60.00 30.00 L 59.67 30.33 L 59.33 30.33 L 59.00 30.67 L 58.67 31.00 L 58.33 31.00 L 58.00 31.33 L 57.67 31.67 L 57.33 31.67 L 57.00 32.00 L 56.67 32.33 L 56.33 32.33 L 56.00 32.67 L 55.67 33.00 L 55.33 33.33 L 55.00 33.33 L 54.67 33.67 L 54.33 34.00 L 54.00 34.33 L 53.67 34.67 L 53.33 35.00 L 53.00 35.00 L 52.67 35.33 L 52.33 35.67 L 52.00 36.00 L 52.00 36.33 L 52.00 36.67 L 52.00 37.00 L 52.33 37.33 L 52.67 37.33 L 53.00 37.33 L 53.33 37.33 L 53.67 37.00 L 54.00 37.00 L 54.33 37.00 L 54.67 37.00 L 55.00 37.00 L 55.33 37.00 L 55.67 36.67 L 56.00 36.67 L 56.33 36.67 L 56.67 36.67 L 57.00 36.67 L 57.33 36.67 L 57.67 36.67 L 58.00 37.00 L 58.00 37.33 L 58.00 37.67 L 58.00 38.00 L 58.00 38.33 L 58.00 38.67 L 58.00 39.00 L 58.00 39.33 L 58.00 39.67 L 58.33 40.00 L 58.33 40.33 L 58.33 40.67 L 58.33 41.00 L 58.33 41.33 L 58.33 41.67 L 58.33 42.00 L 58.33 42.33 L 58.33 42.67 L 58.33 43.00 L 58.33 43.33 L 58.33 43.67 L 58.33 44.00 L 58.33 44.33 L 58.33 44.67 L 58.33 45.00 L 58.33 45.33 L 58.33 45.67 L 58.33 46.00 L 58.33 46.33 L 58.33 46.67 L 58.33 47.00 L 58.33 47.33 L 58.33 47.67 L 58.33 48.00 L 58.33 48.33 L 58.33 48.67 L 58.33 49.00 L 58.33 49.33 L 58.33 49.67 L 58.00 50.00 L 58.00 50.33 L 58.00 50.67 L 58.00 51.00 L 58.00 51.33 L 58.00 51.67 L 58.00 52.00 L 58.00 52.33 L 58.00 52.67 L 58.00 53.00 L 58.00 53.33 L 58.00 53.67 L 58.00 54.00 L 58.00 54.33 L 58.00 54.67 L 58.00 55.00 L 58.00 55.33 L 58.00 55.67 L 58.00 56.00 L 58.00 56.33 L 58.00 56.67 L 58.00 57.00 L 58.00 57.33 L 58.00 57.67 L 58.33 58.00 L 58.33 58.33 L 58.33 58.67 L 58.33 59.00 L 58.33 59.33 L 58.33 59.67 L 58.33 60.00 L 58.33 60.33 L 58.33 60.67 L 58.33 61.00 L 58.33 61.33 L 58.33 61.67 L 58.33 62.00 L 58.33 62.33 L 58.33 62.67 L 58.33 63.00 L 58.33 63.33 L 58.33 63.67 L 58.33 64.00 L 58.33 64.33 L 58.33 64.67 L 58.33 65.00 L 58.33 65.33 L 58.33 65.67 L 58.33 66.00 L 58.33 66.33 L 58.33 66.67 L 58.33 67.00 L 58.00 67.33 L 58.00 67.67 L 58.00 68.00 L 58.00 68.33 L 58.00 68.67 L 57.67 69.00 L 57.67 69.33 L 57.33 69.67 L 57.33 70.00 L 57.33 70.33 L 57.00 70.67 L 57.00 71.00 L 56.67 71.33 L 56.33 71.67 L 56.33 72.00 L 56.00 72.33 L 55.67 72.67 L 55.33 73.00 L 55.00 73.33 L 55.00 73.67 L 55.00 74.00 L 55.00 74.33 L 55.33 74.33 L 55.67 74.67 L 56.00 74.67 L 56.33 75.00 L 56.67 75.00 L 57.00 75.00 L 57.33 75.33 L 57.67 75.33 L 58.00 75.33 L 58.33 75.67 L 58.67 76.00 L 59.00 76.00 L 59.33 76.33 L 59.67 76.33 L 60.00 76.33 L 60.33 76.67 L 60.67 77.00 L 61.00 77.00 L 61.33 77.33 L 61.67 77.33 L 62.00 77.33 L 62.33 77.67 L 62.67 77.67 L 63.00 78.00 L 63.33 78.00 L 63.67 78.33 L 64.00 78.33 L 64.33 78.33 L 64.67 78.67 L 65.00 78.67 L 65.33 78.67 L 65.67 79.00 L 66.00 79.00 L 66.33 79.00 L 66.67 79.33 L 67.00 79.33 L 67.33 79.33 L 67.67 79.33 L 68.00 79.33 L 68.33 79.33 L 68.67 79.33 L 69.00 79.67 L 69.33 79.67 L 69.67 79.67 L 70.00 79.67 L 70.33 79.67 L 70.67 79.67 L 71.00 79.67 L 71.33 79.67 L 71.67 79.67 L 72.00 79.67 L 72.33 79.67 L 72.67 79.67 L 73.00 79.67 L 73.33 79.67 L 73.67 79.67 L 74.00 79.33 L 74.33 79.33 L 74.33 79.00 L 74.33 78.67 L 74.67 78.33 L 74.67 78.00 L 74.67 77.67 L 74.67 77.33 L 74.67 77.00 L 74.67 76.67 L 74.67 76.33 L 74.67 76.00 L 74.67 75.67 L 74.67 75.33 L 74.67 75.00 L 74.67 74.67 L 74.67 74.33 L 74.67 74.00 L 74.67 73.67 L 74.67 73.33 L 74.67 73.00 L 74.67 72.67 L 74.67 72.33 L 74.67 72.00 L 74.67 71.67 L 74.67 71.33 L 74.67 71.00 L 74.67 70.67 L 74.67 70.33 L 74.67 70.00 L 74.67 69.67 L 74.67 69.33 L 74.67 69.00 L 74.67 68.67 L 74.67 68.33 L 74.67 68.00 L 74.67 67.67 L 74.67 67.33 L 74.67 67.00 L 74.67 66.67 L 74.67 66.33 L 74.67 66.00 L 74.67 65.67 L 74.67 65.33 L 74.67 65.00 L 74.67 64.67 L 74.67 64.33 L 74.67 64.00 L 74.67 63.67 L 74.67 63.33 L 74.67 63.00 L 74.67 62.67 L 74.67 62.33 L 74.67 62.00 L 74.67 61.67 L 74.67 61.33 L 74.67 61.00 L 74.67 60.67 L 74.67 60.33 L 74.67 60.00 L 74.67 59.67 L 74.67 59.33 L 74.67 59.00 L 74.67 58.67 L 74.67 58.33 L 74.67 58.00 L 74.67 57.67 L 74.67 57.33 L 74.67 57.00 L 74.67 56.67 L 74.67 56.33 L 74.67 56.00 L 74.67 55.67 L 74.67 55.33 L 74.67 55.00 L 74.67 54.67 L 74.67 54.33 L 74.67 54.00 L 74.67 53.67 L 74.67 53.33 L 74.67 53.00 L 74.67 52.67 L 74.67 52.33 L 74.67 52.00 L 74.67 51.67 L 74.67 51.33 L 74.67 51.00 L 74.67 50.67 L 74.67 50.33 L 74.67 50.00 L 74.67 49.67 L 74.67 49.33 L 74.67 49.00 L 74.67 48.67 L 74.67 48.33 L 74.67 48.00 L 74.67 47.67 L 74.67 47.33 L 74.67 47.00 L 74.67 46.67 L 74.67 46.33 L 74.67 46.00 L 74.67 45.67 L 74.67 45.33 L 74.67 45.00 L 74.67 44.67 L 74.67 44.33 L 74.67 44.00 L 74.67 43.67 L 74.67 43.33 L 74.67 43.00 L 74.67 42.67 L 74.67 42.33 L 74.67 42.00 L 74.67 41.67 L 74.67 41.33 L 74.67 41.00 L 74.67 40.67 L 74.67 40.33 L 74.67 40.00 L 74.67 39.67 L 74.67 39.33 L 74.67 39.00 L 74.67 38.67 L 74.67 38.33 L 74.67 38.00 L 74.67 37.67 L 74.67 37.33 L 74.67 37.00 L 74.67 36.67 L 74.67 36.33 L 74.67 36.00 L 74.67 35.67 L 74.67 35.33 L 74.67 35.00 L 74.67 34.67 L 74.67 34.33 L 74.67 34.00 L 74.67 33.67 L 74.67 33.33 L 74.67 33.00 L 74.67 32.67 L 74.67 32.33 L 74.67 32.00 L 74.67 31.67 L 74.67 31.33 L 74.67 31.00 L 74.67 30.67 L 74.67 30.33 L 74.67 30.00 L 74.67 29.67 L 74.67 29.33 L 74.67 29.00 L 74.67 28.67 L 74.67 28.33 L 74.67 28.00 L 74.67 27.67 L 74.67 27.33 L 74.67 27.00 L 74.67 26.67 L 74.33 26.33 L 74.33 26.00 L 74.33 25.67 L 74.00 25.67 L 73.67 25.67 L 73.33 25.67 L 73.00 25.67 L 72.67 25.67 L 72.33 25.67 L 72.00 25.67 Z M 21.33 25.33 L 21.33 25.67 L 21.00 26.00 L 21.00 26.33 L 21.00 26.67 L 21.00 27.00 L 21.00 27.33 L 21.00 27.67 L 21.00 28.00 L 21.00 28.33 L 21.00 28.67 L 21.00 29.00 L 21.00 29.33 L 21.00 29.67 L 21.00 30.00 L 21.00 30.33 L 21.00 30.67 L 21.00 31.00 L 21.00 31.33 L 21.00 31.67 L 21.00 32.00 L 21.00 32.33 L 21.00 32.67 L 21.00 33.00 L 21.00 33.33 L 21.00 33.67 L 21.00 34.00 L 21.00 34.33 L 21.00 34.67 L 21.00 35.00 L 21.00 35.33 L 21.00 35.67 L 21.00 36.00 L 21.00 36.33 L 21.00 36.67 L 21.00 37.00 L 21.00 37.33 L 21.00 37.67 L 21.00 38.00 L 21.00 38.33 L 21.00 38.67 L 21.00 39.00 L 21.00 39.33 L 21.00 39.67 L 21.00 40.00 L 21.00 40.33 L 21.00 40.67 L 21.00 41.00 L 21.00 41.33 L 21.00 41.67 L 21.00 42.00 L 21.00 42.33 L 21.00 42.67 L 21.00 43.00 L 21.00 43.33 L 21.00 43.67 L 21.00 44.00 L 21.00 44.33 L 21.00 44.67 L 21.00 45.00 L 21.00 45.33 L 21.00 45.67 L 21.00 46.00 L 21.00 46.33 L 21.00 46.67 L 21.00 47.00 L 21.00 47.33 L 21.00 47.67 L 21.00 48.00 L 21.00 48.33 L 21.00 48.67 L 21.00 49.00 L 21.00 49.33 L 21.00 49.67 L 21.00 50.00 L 21.00 50.33 L 21.00 50.67 L 21.00 51.00 L 21.00 51.33 L 21.00 51.67 L 21.00 52.00 L 21.00 52.33 L 21.00 52.67 L 21.00 53.00 L 21.00 53.33 L 21.00 53.67 L 21.00 54.00 L 21.00 54.33 L 21.00 54.67 L 21.00 55.00 L 21.00 55.33 L 21.00 55.67 L 21.00 56.00 L 21.00 56.33 L 21.00 56.67 L 21.00 57.00 L 21.00 57.33 L 21.00 57.67 L 21.00 58.00 L 21.00 58.33 L 21.00 58.67 L 21.00 59.00 L 21.00 59.33 L 21.00 59.67 L 21.00 60.00 L 21.00 60.33 L 21.00 60.67 L 21.00 61.00 L 21.00 61.33 L 21.00 61.67 L 21.00 62.00 L 21.00 62.33 L 21.00 62.67 L 21.00 63.00 L 21.00 63.33 L 21.00 63.67 L 21.00 64.00 L 21.00 64.33 L 21.00 64.67 L 21.00 65.00 L 21.00 65.33 L 21.00 65.67 L 21.00 66.00 L 21.00 66.33 L 21.00 66.67 L 21.00 67.00 L 21.00 67.33 L 21.00 67.67 L 21.00 68.00 L 21.00 68.33 L 21.00 68.67 L 21.00 69.00 L 21.00 69.33 L 21.00 69.67 L 21.00 70.00 L 21.00 70.33 L 21.00 70.67 L 21.00 71.00 L 21.00 71.33 L 21.00 71.67 L 21.00 72.00 L 21.00 72.33 L 21.00 72.67 L 21.00 73.00 L 21.00 73.33 L 21.00 73.67 L 21.00 74.00 L 21.00 74.33 L 21.00 74.67 L 21.00 75.00 L 21.00 75.33 L 21.00 75.67 L 21.00 76.00 L 21.00 76.33 L 21.00 76.67 L 21.00 77.00 L 21.00 77.33 L 21.00 77.67 L 21.00 78.00 L 21.00 78.33 L 21.00 78.67 L 21.00 79.00 L 21.00 79.33 L 21.33 79.33 L 21.67 79.67 L 22.00 79.67 L 22.33 79.67 L 22.67 79.67 L 23.00 79.67 L 23.33 79.67 L 23.67 79.67 L 24.00 79.67 L 24.33 79.67 L 24.67 79.67 L 25.00 79.67 L 25.33 79.67 L 25.67 79.67 L 26.00 79.33 L 26.33 79.33 L 26.67 79.33 L 27.00 79.33 L 27.33 79.33 L 27.67 79.33 L 28.00 79.33 L 28.33 79.33 L 28.67 79.33 L 29.00 79.33 L 29.33 79.00 L 29.67 79.00 L 30.00 78.67 L 30.33 78.67 L 30.67 78.67 L 31.00 78.33 L 31.33 78.33 L 31.67 78.33 L 32.00 78.33 L 32.33 78.00 L 32.67 78.00 L 33.00 77.67 L 33.33 77.67 L 33.67 77.33 L 34.00 77.33 L 34.33 77.33 L 34.67 77.00 L 35.00 77.00 L 35.33 76.67 L 35.67 76.67 L 36.00 76.33 L 36.33 76.33 L 36.67 76.33 L 37.00 76.00 L 37.33 76.00 L 37.67 75.67 L 38.00 75.67 L 38.33 75.33 L 38.67 75.33 L 39.00 75.33 L 39.33 75.00 L 39.67 75.00 L 40.00 75.00 L 40.33 74.67 L 40.67 74.67 L 41.00 74.33 L 41.33 74.33 L 41.67 74.33 L 41.67 74.00 L 41.67 73.67 L 41.67 73.33 L 41.67 73.00 L 41.33 72.67 L 41.00 72.33 L 40.67 72.00 L 40.33 71.67 L 40.00 71.33 L 40.00 71.00 L 39.67 70.67 L 39.33 70.33 L 39.33 70.00 L 39.33 69.67 L 39.33 69.33 L 39.00 69.00 L 38.67 68.67 L 38.67 68.33 L 38.67 68.00 L 38.33 67.67 L 38.33 67.33 L 38.33 67.00 L 38.33 66.67 L 38.33 66.33 L 38.33 66.00 L 38.33 65.67 L 38.33 65.33 L 38.33 65.00 L 38.33 64.67 L 38.33 64.33 L 38.33 64.00 L 38.33 63.67 L 38.33 63.33 L 38.33 63.00 L 38.33 62.67 L 38.33 62.33 L 38.33 62.00 L 38.33 61.67 L 38.33 61.33 L 38.33 61.00 L 38.33 60.67 L 38.33 60.33 L 38.33 60.00 L 38.33 59.67 L 38.33 59.33 L 38.33 59.00 L 38.33 58.67 L 38.33 58.33 L 38.33 58.00 L 38.33 57.67 L 38.33 57.33 L 38.33 57.00 L 38.33 56.67 L 38.33 56.33 L 38.33 56.00 L 38.33 55.67 L 38.33 55.33 L 38.33 55.00 L 38.33 54.67 L 38.33 54.33 L 38.33 54.00 L 38.33 53.67 L 38.33 53.33 L 38.33 53.00 L 38.33 52.67 L 38.33 52.33 L 38.33 52.00 L 38.33 51.67 L 38.33 51.33 L 38.33 51.00 L 38.33 50.67 L 38.33 50.33 L 38.33 50.00 L 38.33 49.67 L 38.33 49.33 L 38.33 49.00 L 38.33 48.67 L 38.33 48.33 L 38.33 48.00 L 38.33 47.67 L 38.33 47.33 L 38.33 47.00 L 38.33 46.67 L 38.33 46.33 L 38.33 46.00 L 38.33 45.67 L 38.33 45.33 L 38.33 45.00 L 38.33 44.67 L 38.33 44.33 L 38.33 44.00 L 38.33 43.67 L 38.33 43.33 L 38.33 43.00 L 38.33 42.67 L 38.33 42.33 L 38.33 42.00 L 38.33 41.67 L 38.33 41.33 L 38.33 41.00 L 38.33 40.67 L 38.33 40.33 L 38.33 40.00 L 38.33 39.67 L 38.33 39.33 L 38.33 39.00 L 38.33 38.67 L 38.33 38.33 L 38.33 38.00 L 38.33 37.67 L 38.33 37.33 L 38.33 37.00 L 38.67 36.67 L 39.00 36.33 L 39.33 36.33 L 39.67 36.67 L 40.00 36.67 L 40.33 36.67 L 40.67 36.67 L 41.00 36.67 L 41.33 36.67 L 41.67 36.67 L 42.00 36.67 L 42.33 36.67 L 42.67 36.67 L 43.00 37.00 L 43.33 37.00 L 43.67 37.33 L 44.00 37.33 L 44.33 37.33 L 44.67 37.33 L 45.00 37.33 L 45.33 37.00 L 45.33 36.67 L 45.33 36.33 L 45.00 36.00 L 44.67 35.67 L 44.33 35.33 L 44.00 35.00 L 43.67 35.00 L 43.33 34.67 L 43.00 34.33 L 42.67 34.00 L 42.33 33.67 L 42.00 33.33 L 41.67 33.00 L 41.33 33.00 L 41.00 32.67 L 40.67 32.33 L 40.33 32.00 L 40.00 32.00 L 39.67 31.67 L 39.33 31.33 L 39.00 31.33 L 38.67 31.00 L 38.33 31.00 L 38.00 30.67 L 37.67 30.33 L 37.33 30.33 L 37.00 30.00 L 36.67 30.00 L 36.33 29.67 L 36.00 29.67 L 35.67 29.33 L 35.33 29.00 L 35.00 29.00 L 34.67 29.00 L 34.33 28.67 L 34.00 28.33 L 33.67 28.33 L 33.33 28.00 L 33.00 28.00 L 32.67 28.00 L 32.33 27.67 L 32.00 27.33 L 31.67 27.33 L 31.33 27.00 L 31.00 27.00 L 30.67 27.00 L 30.33 27.00 L 30.00 26.67 L 29.67 26.67 L 29.33 26.33 L 29.00 26.33 L 28.67 26.33 L 28.33 26.00 L 28.00 26.00 L 27.67 26.00 L 27.33 26.00 L 27.00 26.00 L 26.67 26.00 L 26.33 26.00 L 26.00 25.67 L 25.67 25.67 L 25.33 25.67 L 25.00 25.67 L 24.67 25.67 L 24.33 25.33 L 24.00 25.33 L 23.67 25.33 L 23.33 25.33 L 23.00 25.33 L 22.67 25.33 L 22.33 25.33 L 22.00 25.33 L 21.67 25.33 Z M 21.67 26.33 L 22.00 26.00 L 22.33 26.00 L 22.67 26.00 L 23.00 26.00 L 23.33 26.00 L 23.67 26.00 L 24.00 26.00 L 24.33 26.00 L 24.67 26.00 L 25.00 26.00 L 25.33 26.00 L 25.67 26.33 L 26.00 26.33 L 26.33 26.33 L 26.67 26.33 L 27.00 26.33 L 27.33 26.33 L 27.67 26.67 L 28.00 26.67 L 28.33 26.67 L 28.67 27.00 L 29.00 27.00 L 29.33 27.00 L 29.67 27.00 L 30.00 27.33 L 30.33 27.33 L 30.67 27.33 L 31.00 27.67 L 31.33 27.67 L 31.67 28.00 L 32.00 28.00 L 32.33 28.33 L 32.67 28.33 L 33.00 28.33 L 33.33 28.67 L 33.67 29.00 L 34.00 29.00 L 34.33 29.00 L 34.67 29.33 L 35.00 29.33 L 35.33 29.67 L 35.67 30.00 L 36.00 30.00 L 36.33 30.33 L 36.67 30.33 L 37.00 30.67 L 37.33 31.00 L 37.67 31.00 L 38.00 31.33 L 38.33 31.33 L 38.67 31.67 L 39.00 32.00 L 39.33 32.00 L 39.67 32.33 L 40.00 32.67 L 40.33 33.00 L 40.67 33.00 L 41.00 33.33 L 41.33 33.67 L 41.67 34.00 L 42.00 34.33 L 42.33 34.33 L 42.67 34.67 L 43.00 35.00 L 43.33 35.33 L 43.67 35.67 L 43.67 36.00 L 43.33 36.33 L 43.00 36.33 L 42.67 36.33 L 42.33 36.33 L 42.00 36.33 L 41.67 36.00 L 41.33 36.00 L 41.00 36.00 L 40.67 36.00 L 40.33 36.00 L 40.00 36.00 L 39.67 36.00 L 39.33 36.00 L 39.00 36.00 L 38.67 36.00 L 38.33 36.33 L 38.00 36.33 L 37.67 36.67 L 37.67 37.00 L 37.67 37.33 L 37.67 37.67 L 37.67 38.00 L 37.67 38.33 L 37.67 38.67 L 37.67 39.00 L 37.67 39.33 L 37.67 39.67 L 37.67 40.00 L 37.67 40.33 L 37.67 40.67 L 37.67 41.00 L 37.67 41.33 L 37.67 41.67 L 37.67 42.00 L 37.67 42.33 L 37.67 42.67 L 37.67 43.00 L 37.67 43.33 L 37.67 43.67 L 37.67 44.00 L 37.67 44.33 L 37.67 44.67 L 37.67 45.00 L 37.67 45.33 L 37.67 45.67 L 37.67 46.00 L 37.67 46.33 L 37.67 46.67 L 37.67 47.00 L 37.67 47.33 L 37.67 47.67 L 37.67 48.00 L 37.67 48.33 L 37.67 48.67 L 37.67 49.00 L 37.67 49.33 L 37.67 49.67 L 37.67 50.00 L 37.67 50.33 L 37.67 50.67 L 37.67 51.00 L 37.67 51.33 L 37.67 51.67 L 37.67 52.00 L 37.67 52.33 L 37.67 52.67 L 37.67 53.00 L 37.67 53.33 L 37.67 53.67 L 37.67 54.00 L 37.67 54.33 L 37.67 54.67 L 37.67 55.00 L 37.67 55.33 L 37.67 55.67 L 37.67 56.00 L 37.67 56.33 L 37.67 56.67 L 37.67 57.00 L 37.67 57.33 L 37.67 57.67 L 37.67 58.00 L 37.67 58.33 L 37.67 58.67 L 37.67 59.00 L 37.67 59.33 L 37.67 59.67 L 37.67 60.00 L 37.67 60.33 L 37.67 60.67 L 37.67 61.00 L 37.67 61.33 L 37.67 61.67 L 37.67 62.00 L 37.67 62.33 L 37.67 62.67 L 37.67 63.00 L 37.67 63.33 L 37.67 63.67 L 37.67 64.00 L 37.67 64.33 L 37.67 64.67 L 37.67 65.00 L 37.67 65.33 L 37.67 65.67 L 37.67 66.00 L 38.00 66.33 L 38.00 66.67 L 38.00 67.00 L 38.00 67.33 L 38.00 67.67 L 38.00 68.00 L 38.33 68.33 L 38.33 68.67 L 38.33 69.00 L 38.33 69.33 L 38.67 69.67 L 39.00 70.00 L 39.00 70.33 L 39.33 70.67 L 39.33 71.00 L 39.67 71.33 L 39.67 71.67 L 40.00 72.00 L 40.33 72.33 L 40.33 72.67 L 40.67 72.67 L 41.00 73.00 L 41.00 73.33 L 41.00 73.67 L 40.67 74.00 L 40.33 74.33 L 40.00 74.33 L 39.67 74.33 L 39.33 74.33 L 39.00 74.67 L 38.67 75.00 L 38.33 75.00 L 38.00 75.00 L 37.67 75.33 L 37.33 75.33 L 37.00 75.33 L 36.67 75.67 L 36.33 75.67 L 36.00 76.00 L 35.67 76.00 L 35.33 76.33 L 35.00 76.33 L 34.67 76.33 L 34.33 76.67 L 34.00 77.00 L 33.67 77.00 L 33.33 77.00 L 33.00 77.33 L 32.67 77.33 L 32.33 77.33 L 32.00 77.67 L 31.67 77.67 L 31.33 78.00 L 31.00 78.00 L 30.67 78.00 L 30.33 78.33 L 30.00 78.33 L 29.67 78.33 L 29.33 78.33 L 29.00 78.33 L 28.67 78.67 L 28.33 78.67 L 28.00 78.67 L 27.67 79.00 L 27.33 79.00 L 27.00 79.00 L 26.67 79.00 L 26.33 79.00 L 26.00 79.00 L 25.67 79.00 L 25.33 79.00 L 25.00 79.00 L 24.67 79.00 L 24.33 79.00 L 24.00 79.00 L 23.67 79.00 L 23.33 79.00 L 23.00 79.00 L 22.67 79.00 L 22.33 79.00 L 22.00 79.00 L 21.67 79.00 L 21.33 78.67 L 21.33 78.33 L 21.33 78.00 L 21.33 77.67 L 21.33 77.33 L 21.33 77.00 L 21.33 76.67 L 21.33 76.33 L 21.33 76.00 L 21.33 75.67 L 21.33 75.33 L 21.33 75.00 L 21.33 74.67 L 21.33 74.33 L 21.33 74.00 L 21.33 73.67 L 21.33 73.33 L 21.33 73.00 L 21.33 72.67 L 21.33 72.33 L 21.33 72.00 L 21.33 71.67 L 21.33 71.33 L 21.33 71.00 L 21.33 70.67 L 21.33 70.33 L 21.33 70.00 L 21.33 69.67 L 21.33 69.33 L 21.33 69.00 L 21.33 68.67 L 21.33 68.33 L 21.33 68.00 L 21.33 67.67 L 21.33 67.33 L 21.33 67.00 L 21.33 66.67 L 21.33 66.33 L 21.33 66.00 L 21.33 65.67 L 21.33 65.33 L 21.33 65.00 L 21.33 64.67 L 21.33 64.33 L 21.33 64.00 L 21.33 63.67 L 21.33 63.33 L 21.33 63.00 L 21.33 62.67 L 21.33 62.33 L 21.33 62.00 L 21.33 61.67 L 21.33 61.33 L 21.33 61.00 L 21.33 60.67 L 21.33 60.33 L 21.33 60.00 L 21.33 59.67 L 21.33 59.33 L 21.33 59.00 L 21.33 58.67 L 21.33 58.33 L 21.33 58.00 L 21.33 57.67 L 21.33 57.33 L 21.33 57.00 L 21.33 56.67 L 21.33 56.33 L 21.33 56.00 L 21.33 55.67 L 21.33 55.33 L 21.33 55.00 L 21.33 54.67 L 21.33 54.33 L 21.33 54.00 L 21.33 53.67 L 21.33 53.33 L 21.33 53.00 L 21.33 52.67 L 21.33 52.33 L 21.33 52.00 L 21.33 51.67 L 21.33 51.33 L 21.33 51.00 L 21.33 50.67 L 21.33 50.33 L 21.33 50.00 L 21.33 49.67 L 21.33 49.33 L 21.33 49.00 L 21.33 48.67 L 21.33 48.33 L 21.33 48.00 L 21.33 47.67 L 21.33 47.33 L 21.33 47.00 L 21.33 46.67 L 21.33 46.33 L 21.33 46.00 L 21.33 45.67 L 21.33 45.33 L 21.33 45.00 L 21.33 44.67 L 21.33 44.33 L 21.33 44.00 L 21.33 43.67 L 21.33 43.33 L 21.33 43.00 L 21.33 42.67 L 21.33 42.33 L 21.33 42.00 L 21.33 41.67 L 21.33 41.33 L 21.33 41.00 L 21.33 40.67 L 21.33 40.33 L 21.33 40.00 L 21.33 39.67 L 21.33 39.33 L 21.33 39.00 L 21.33 38.67 L 21.33 38.33 L 21.33 38.00 L 21.33 37.67 L 21.33 37.33 L 21.33 37.00 L 21.33 36.67 L 21.33 36.33 L 21.33 36.00 L 21.33 35.67 L 21.33 35.33 L 21.33 35.00 L 21.33 34.67 L 21.33 34.33 L 21.33 34.00 L 21.33 33.67 L 21.33 33.33 L 21.33 33.00 L 21.33 32.67 L 21.33 32.33 L 21.33 32.00 L 21.33 31.67 L 21.33 31.33 L 21.33 31.00 L 21.33 30.67 L 21.33 30.33 L 21.33 30.00 L 21.33 29.67 L 21.33 29.33 L 21.33 29.00 L 21.33 28.67 L 21.33 28.33 L 21.33 28.00 L 21.33 27.67 L 21.33 27.33 L 21.33 27.00 L 21.33 26.67 Z" fill="#AF8B52" fill-rule="evenodd"/>
<path d="M 41.67 57.67 L 41.33 58.00 L 41.33 58.33 L 41.33 58.67 L 41.33 59.00 L 41.33 59.33 L 41.33 59.67 L 41.67 60.00 L 41.67 60.33 L 41.67 60.67 L 41.67 61.00 L 41.67 61.33 L 42.00 61.67 L 42.00 62.00 L 42.33 62.33 L 42.33 62.67 L 42.67 63.00 L 43.00 63.33 L 43.33 63.67 L 43.67 64.00 L 44.00 64.00 L 44.33 64.33 L 44.67 64.67 L 45.00 64.67 L 45.33 65.00 L 45.67 65.33 L 46.00 65.67 L 46.33 66.00 L 46.67 66.33 L 47.00 66.67 L 47.00 67.00 L 47.00 67.33 L 47.00 67.67 L 47.33 68.00 L 47.33 68.33 L 47.33 68.67 L 47.33 69.00 L 47.33 69.33 L 47.33 69.67 L 47.33 70.00 L 47.33 70.33 L 47.33 70.67 L 47.33 71.00 L 47.33 71.33 L 47.33 71.67 L 47.33 72.00 L 47.33 72.33 L 47.33 72.67 L 47.33 73.00 L 47.33 73.33 L 47.33 73.67 L 47.33 74.00 L 47.33 74.33 L 47.33 74.67 L 47.33 75.00 L 47.33 75.33 L 47.33 75.67 L 47.33 76.00 L 47.33 76.33 L 47.33 76.67 L 47.33 77.00 L 47.33 77.33 L 47.33 77.67 L 47.33 78.00 L 47.00 78.33 L 46.67 78.67 L 46.33 79.00 L 46.00 79.00 L 45.67 79.00 L 45.33 79.00 L 45.00 79.00 L 44.67 79.00 L 44.33 79.00 L 44.00 79.33 L 43.67 79.33 L 43.33 79.33 L 43.00 79.33 L 42.67 79.33 L 42.33 79.33 L 42.00 79.33 L 41.67 79.33 L 41.33 79.67 L 41.00 79.67 L 40.67 79.67 L 40.33 79.67 L 40.00 80.00 L 39.67 80.00 L 39.33 80.00 L 39.00 80.33 L 38.67 80.33 L 38.33 80.33 L 38.00 80.67 L 37.67 80.67 L 37.33 80.67 L 37.00 80.67 L 36.67 81.00 L 36.33 81.00 L 36.00 81.33 L 35.67 81.33 L 35.33 81.33 L 35.00 81.67 L 34.67 81.67 L 34.33 82.00 L 34.00 82.00 L 33.67 82.33 L 33.33 82.33 L 33.00 82.33 L 32.67 82.67 L 32.33 82.67 L 32.00 82.67 L 31.67 83.00 L 31.33 83.00 L 31.00 83.33 L 30.67 83.33 L 30.33 83.33 L 30.00 83.33 L 29.67 83.33 L 29.33 83.67 L 29.00 83.67 L 28.67 83.67 L 28.33 83.67 L 28.00 84.00 L 27.67 84.00 L 27.33 84.00 L 27.00 84.33 L 26.67 84.33 L 26.33 84.33 L 26.00 84.33 L 25.67 84.33 L 25.33 84.33 L 25.00 84.33 L 24.67 84.33 L 24.33 84.33 L 24.00 84.33 L 23.67 84.33 L 23.33 84.33 L 23.00 84.33 L 22.67 84.33 L 22.33 84.33 L 22.00 84.33 L 21.67 84.33 L 21.33 84.33 L 21.00 84.33 L 20.67 84.33 L 20.33 84.33 L 20.00 84.67 L 20.33 84.67 L 20.67 85.00 L 21.00 85.00 L 21.33 85.00 L 21.67 85.00 L 22.00 85.33 L 22.33 85.33 L 22.67 85.33 L 23.00 85.33 L 23.33 85.67 L 23.67 85.67 L 24.00 85.67 L 24.33 85.67 L 24.67 85.67 L 25.00 85.67 L 25.33 85.67 L 25.67 85.67 L 26.00 85.67 L 26.33 85.67 L 26.67 85.67 L 27.00 85.67 L 27.33 85.67 L 27.67 85.67 L 28.00 85.67 L 28.33 85.67 L 28.67 85.67 L 29.00 85.67 L 29.33 85.67 L 29.67 85.67 L 30.00 85.67 L 30.33 85.67 L 30.67 85.67 L 31.00 85.67 L 31.33 85.67 L 31.67 85.67 L 32.00 85.67 L 32.33 85.33 L 32.67 85.33 L 33.00 85.33 L 33.33 85.00 L 33.67 85.00 L 34.00 85.00 L 34.33 85.00 L 34.67 84.67 L 35.00 84.67 L 35.33 84.67 L 35.67 84.33 L 36.00 84.33 L 36.33 84.00 L 36.67 84.00 L 37.00 84.00 L 37.33 84.00 L 37.67 83.67 L 38.00 83.67 L 38.33 83.67 L 38.67 83.33 L 39.00 83.33 L 39.33 83.00 L 39.67 83.00 L 40.00 83.00 L 40.33 83.00 L 40.67 82.67 L 41.00 82.67 L 41.33 82.67 L 41.67 82.67 L 42.00 82.67 L 42.33 82.33 L 42.67 82.33 L 43.00 82.33 L 43.33 82.33 L 43.67 82.33 L 44.00 82.00 L 44.33 82.00 L 44.67 82.00 L 45.00 82.00 L 45.33 82.00 L 45.67 82.00 L 46.00 82.00 L 46.33 82.00 L 46.67 82.00 L 47.00 82.00 L 47.33 82.00 L 47.67 82.00 L 48.00 82.00 L 48.33 82.00 L 48.67 82.00 L 49.00 82.00 L 49.33 82.00 L 49.67 82.00 L 50.00 82.00 L 50.33 82.00 L 50.67 82.00 L 51.00 82.00 L 51.33 82.33 L 51.67 82.33 L 52.00 82.33 L 52.33 82.33 L 52.67 82.67 L 53.00 82.67 L 53.33 82.67 L 53.67 82.67 L 54.00 83.00 L 54.33 83.00 L 54.67 83.00 L 55.00 83.00 L 55.33 83.33 L 55.67 83.33 L 56.00 83.67 L 56.33 83.67 L 56.67 83.67 L 57.00 84.00 L 57.33 84.00 L 57.67 84.00 L 58.00 84.33 L 58.33 84.33 L 58.67 84.67 L 59.00 84.67 L 59.33 85.00 L 59.67 85.00 L 60.00 85.00 L 60.33 85.33 L 60.67 85.33 L 61.00 85.33 L 61.33 85.67 L 61.67 85.67 L 62.00 85.67 L 62.33 85.67 L 62.67 85.67 L 63.00 86.00 L 63.33 86.00 L 63.67 86.00 L 64.00 86.00 L 64.33 86.00 L 64.67 86.00 L 65.00 86.33 L 65.33 86.33 L 65.67 86.33 L 66.00 86.33 L 66.33 86.67 L 66.67 86.67 L 67.00 86.67 L 67.33 86.67 L 67.67 86.33 L 68.00 86.33 L 68.33 86.33 L 68.67 86.33 L 69.00 86.33 L 69.33 86.00 L 69.67 86.00 L 70.00 86.00 L 70.33 86.00 L 70.67 86.00 L 71.00 86.00 L 71.33 86.00 L 71.67 85.67 L 72.00 85.67 L 72.33 85.67 L 72.67 85.67 L 73.00 85.67 L 73.33 85.33 L 73.67 85.33 L 74.00 85.33 L 74.33 85.00 L 74.67 85.00 L 75.00 85.00 L 75.33 84.67 L 75.67 84.67 L 75.33 84.67 L 75.00 84.67 L 74.67 84.67 L 74.33 84.67 L 74.00 84.67 L 73.67 84.67 L 73.33 84.67 L 73.00 84.67 L 72.67 84.67 L 72.33 84.67 L 72.00 84.67 L 71.67 84.67 L 71.33 84.67 L 71.00 84.67 L 70.67 84.67 L 70.33 84.67 L 70.00 84.67 L 69.67 84.67 L 69.33 84.67 L 69.00 84.33 L 68.67 84.33 L 68.33 84.33 L 68.00 84.33 L 67.67 84.33 L 67.33 84.33 L 67.00 84.00 L 66.67 84.00 L 66.33 84.00 L 66.00 83.67 L 65.67 83.67 L 65.33 83.67 L 65.00 83.67 L 64.67 83.67 L 64.33 83.33 L 64.00 83.33 L 63.67 83.33 L 63.33 83.00 L 63.00 83.00 L 62.67 82.67 L 62.33 82.67 L 62.00 82.67 L 61.67 82.33 L 61.33 82.33 L 61.00 82.00 L 60.67 82.00 L 60.33 81.67 L 60.00 81.67 L 59.67 81.33 L 59.33 81.33 L 59.00 81.33 L 58.67 81.00 L 58.33 81.00 L 58.00 80.67 L 57.67 80.67 L 57.33 80.67 L 57.00 80.33 L 56.67 80.33 L 56.33 80.33 L 56.00 80.33 L 55.67 80.00 L 55.33 80.00 L 55.00 79.67 L 54.67 79.67 L 54.33 79.67 L 54.00 79.67 L 53.67 79.67 L 53.33 79.33 L 53.00 79.33 L 52.67 79.33 L 52.33 79.33 L 52.00 79.33 L 51.67 79.33 L 51.33 79.33 L 51.00 79.33 L 50.67 79.33 L 50.33 79.00 L 50.00 79.00 L 49.67 78.67 L 49.33 78.67 L 49.00 78.33 L 49.00 78.00 L 49.00 77.67 L 49.00 77.33 L 49.00 77.00 L 49.00 76.67 L 49.00 76.33 L 49.00 76.00 L 49.00 75.67 L 49.00 75.33 L 49.00 75.00 L 49.00 74.67 L 49.00 74.33 L 49.00 74.00 L 49.00 73.67 L 49.00 73.33 L 49.00 73.00 L 49.00 72.67 L 49.00 72.33 L 49.00 72.00 L 49.00 71.67 L 49.00 71.33 L 49.00 71.00 L 49.00 70.67 L 49.00 70.33 L 49.00 70.00 L 49.00 69.67 L 49.00 69.33 L 49.00 69.00 L 49.00 68.67 L 49.00 68.33 L 49.00 68.00 L 49.00 67.67 L 49.00 67.33 L 49.00 67.00 L 49.33 66.67 L 49.67 66.33 L 49.67 66.00 L 50.00 65.67 L 50.33 65.33 L 50.67 65.00 L 51.00 65.00 L 51.33 64.67 L 51.67 64.67 L 52.00 64.33 L 52.33 64.00 L 52.67 64.00 L 53.00 63.67 L 53.00 63.33 L 53.33 63.00 L 53.67 62.67 L 54.00 62.33 L 54.00 62.00 L 54.00 61.67 L 54.33 61.33 L 54.33 61.00 L 54.33 60.67 L 54.67 60.33 L 54.67 60.00 L 54.67 59.67 L 54.67 59.33 L 54.67 59.00 L 54.67 58.67 L 54.67 58.33 L 54.67 58.00 L 54.67 58.33 L 54.33 58.67 L 54.33 59.00 L 54.00 59.33 L 53.67 59.67 L 53.67 60.00 L 53.33 60.33 L 53.00 60.67 L 52.67 61.00 L 52.33 61.33 L 52.00 61.33 L 51.67 61.67 L 51.33 61.67 L 51.00 62.00 L 50.67 62.00 L 50.33 62.33 L 50.00 62.33 L 49.67 62.33 L 49.33 62.33 L 49.00 62.33 L 48.67 62.33 L 48.33 62.33 L 48.00 62.33 L 47.67 62.33 L 47.33 62.33 L 47.00 62.33 L 46.67 62.33 L 46.33 62.33 L 46.00 62.00 L 45.67 62.00 L 45.33 62.00 L 45.00 61.67 L 44.67 61.67 L 44.33 61.67 L 44.00 61.33 L 43.67 61.33 L 43.33 61.00 L 43.00 60.67 L 43.00 60.33 L 42.67 60.00 L 42.33 59.67 L 42.33 59.33 L 42.00 59.00 L 42.00 58.67 L 42.00 58.33 L 41.67 58.00 Z M 22.00 26.33 L 21.67 26.67 L 21.67 27.00 L 21.67 27.33 L 21.67 27.67 L 21.67 28.00 L 21.67 28.33 L 21.67 28.67 L 21.67 29.00 L 21.67 29.33 L 21.67 29.67 L 21.67 30.00 L 21.67 30.33 L 21.67 30.67 L 21.67 31.00 L 21.67 31.33 L 21.67 31.67 L 21.67 32.00 L 21.67 32.33 L 21.67 32.67 L 21.67 33.00 L 21.67 33.33 L 21.67 33.67 L 21.67 34.00 L 21.67 34.33 L 21.67 34.67 L 21.67 35.00 L 21.67 35.33 L 21.67 35.67 L 21.67 36.00 L 21.67 36.33 L 21.67 36.67 L 21.67 37.00 L 21.67 37.33 L 21.67 37.67 L 21.67 38.00 L 21.67 38.33 L 21.67 38.67 L 21.67 39.00 L 21.67 39.33 L 21.67 39.67 L 21.67 40.00 L 21.67 40.33 L 21.67 40.67 L 21.67 41.00 L 21.67 41.33 L 21.67 41.67 L 21.67 42.00 L 21.67 42.33 L 21.67 42.67 L 21.67 43.00 L 21.67 43.33 L 21.67 43.67 L 21.67 44.00 L 21.67 44.33 L 21.67 44.67 L 21.67 45.00 L 21.67 45.33 L 21.67 45.67 L 21.67 46.00 L 21.67 46.33 L 21.67 46.67 L 21.67 47.00 L 21.67 47.33 L 21.67 47.67 L 21.67 48.00 L 21.67 48.33 L 21.67 48.67 L 21.67 49.00 L 21.67 49.33 L 21.67 49.67 L 21.67 50.00 L 21.67 50.33 L 21.67 50.67 L 21.67 51.00 L 21.67 51.33 L 21.67 51.67 L 21.67 52.00 L 21.67 52.33 L 21.67 52.67 L 21.67 53.00 L 21.67 53.33 L 21.67 53.67 L 21.67 54.00 L 21.67 54.33 L 21.67 54.67 L 21.67 55.00 L 21.67 55.33 L 21.67 55.67 L 21.67 56.00 L 21.67 56.33 L 21.67 56.67 L 21.67 57.00 L 21.67 57.33 L 21.67 57.67 L 21.67 58.00 L 21.67 58.33 L 21.67 58.67 L 21.67 59.00 L 21.67 59.33 L 21.67 59.67 L 21.67 60.00 L 21.67 60.33 L 21.67 60.67 L 21.67 61.00 L 21.67 61.33 L 21.67 61.67 L 21.67 62.00 L 21.67 62.33 L 21.67 62.67 L 21.67 63.00 L 21.67 63.33 L 21.67 63.67 L 21.67 64.00 L 21.67 64.33 L 21.67 64.67 L 21.67 65.00 L 21.67 65.33 L 21.67 65.67 L 21.67 66.00 L 21.67 66.33 L 21.67 66.67 L 21.67 67.00 L 21.67 67.33 L 21.67 67.67 L 21.67 68.00 L 21.67 68.33 L 21.67 68.67 L 21.67 69.00 L 21.67 69.33 L 21.67 69.67 L 21.67 70.00 L 21.67 70.33 L 21.67 70.67 L 21.67 71.00 L 21.67 71.33 L 21.67 71.67 L 21.67 72.00 L 21.67 72.33 L 21.67 72.67 L 21.67 73.00 L 21.67 73.33 L 21.67 73.67 L 21.67 74.00 L 21.67 74.33 L 21.67 74.67 L 21.67 75.00 L 21.67 75.33 L 21.67 75.67 L 21.67 76.00 L 21.67 76.33 L 21.67 76.67 L 21.67 77.00 L 21.67 77.33 L 21.67 77.67 L 21.67 78.00 L 21.67 78.33 L 21.67 78.67 L 22.00 78.67 L 22.33 78.67 L 22.67 78.67 L 23.00 78.67 L 23.33 78.67 L 23.67 78.67 L 24.00 78.67 L 24.33 78.67 L 24.67 78.67 L 25.00 78.67 L 25.33 78.67 L 25.67 78.67 L 26.00 78.67 L 26.33 78.67 L 26.67 78.67 L 27.00 78.67 L 27.33 78.67 L 27.67 78.67 L 28.00 78.33 L 28.33 78.33 L 28.67 78.33 L 29.00 78.00 L 29.33 78.00 L 29.67 78.00 L 30.00 78.00 L 30.33 78.00 L 30.67 77.67 L 31.00 77.67 L 31.33 77.67 L 31.67 77.33 L 32.00 77.33 L 32.33 77.00 L 32.67 77.00 L 33.00 77.00 L 33.33 76.67 L 33.67 76.67 L 34.00 76.67 L 34.33 76.33 L 34.67 76.00 L 35.00 76.00 L 35.33 76.00 L 35.67 75.67 L 36.00 75.67 L 36.33 75.33 L 36.67 75.33 L 37.00 75.00 L 37.33 75.00 L 37.67 75.00 L 38.00 74.67 L 38.33 74.67 L 38.67 74.67 L 39.00 74.33 L 39.33 74.00 L 39.67 74.00 L 40.00 74.00 L 40.33 74.00 L 40.67 73.67 L 40.67 73.33 L 40.67 73.00 L 40.33 73.00 L 40.00 72.67 L 40.00 72.33 L 39.67 72.00 L 39.33 71.67 L 39.33 71.33 L 39.00 71.00 L 39.00 70.67 L 38.67 70.33 L 38.67 70.00 L 38.33 69.67 L 38.00 69.33 L 38.00 69.00 L 38.00 68.67 L 38.00 68.33 L 37.67 68.00 L 37.67 67.67 L 37.67 67.33 L 37.67 67.00 L 37.67 66.67 L 37.67 66.33 L 37.33 66.00 L 37.33 65.67 L 37.33 65.33 L 37.33 65.00 L 37.33 64.67 L 37.33 64.33 L 37.33 64.00 L 37.33 63.67 L 37.33 63.33 L 37.33 63.00 L 37.33 62.67 L 37.33 62.33 L 37.33 62.00 L 37.33 61.67 L 37.33 61.33 L 37.33 61.00 L 37.33 60.67 L 37.33 60.33 L 37.33 60.00 L 37.33 59.67 L 37.33 59.33 L 37.33 59.00 L 37.33 58.67 L 37.33 58.33 L 37.33 58.00 L 37.33 57.67 L 37.33 57.33 L 37.33 57.00 L 37.33 56.67 L 37.33 56.33 L 37.33 56.00 L 37.33 55.67 L 37.33 55.33 L 37.33 55.00 L 37.33 54.67 L 37.33 54.33 L 37.33 54.00 L 37.33 53.67 L 37.33 53.33 L 37.33 53.00 L 37.33 52.67 L 37.33 52.33 L 37.33 52.00 L 37.33 51.67 L 37.33 51.33 L 37.33 51.00 L 37.33 50.67 L 37.33 50.33 L 37.33 50.00 L 37.33 49.67 L 37.33 49.33 L 37.33 49.00 L 37.33 48.67 L 37.33 48.33 L 37.33 48.00 L 37.33 47.67 L 37.33 47.33 L 37.33 47.00 L 37.33 46.67 L 37.33 46.33 L 37.33 46.00 L 37.33 45.67 L 37.33 45.33 L 37.33 45.00 L 37.33 44.67 L 37.33 44.33 L 37.33 44.00 L 37.33 43.67 L 37.33 43.33 L 37.33 43.00 L 37.33 42.67 L 37.33 42.33 L 37.33 42.00 L 37.33 41.67 L 37.33 41.33 L 37.33 41.00 L 37.33 40.67 L 37.33 40.33 L 37.33 40.00 L 37.33 39.67 L 37.33 39.33 L 37.33 39.00 L 37.33 38.67 L 37.33 38.33 L 37.33 38.00 L 37.33 37.67 L 37.33 37.33 L 37.33 37.00 L 37.33 36.67 L 37.67 36.33 L 38.00 36.00 L 38.33 36.00 L 38.67 35.67 L 39.00 35.67 L 39.33 35.67 L 39.67 35.67 L 40.00 35.67 L 40.33 35.67 L 40.67 35.67 L 41.00 35.67 L 41.33 35.67 L 41.67 35.67 L 42.00 36.00 L 42.33 36.00 L 42.67 36.00 L 43.00 36.00 L 43.33 36.00 L 43.67 36.00 L 43.33 35.67 L 43.00 35.33 L 42.67 35.00 L 42.33 34.67 L 42.00 34.67 L 41.67 34.33 L 41.33 34.00 L 41.00 33.67 L 40.67 33.33 L 40.33 33.33 L 40.00 33.00 L 39.67 32.67 L 39.33 32.33 L 39.00 32.33 L 38.67 32.00 L 38.33 31.67 L 38.00 31.67 L 37.67 31.33 L 37.33 31.33 L 37.00 31.00 L 36.67 30.67 L 36.33 30.67 L 36.00 30.33 L 35.67 30.33 L 35.33 30.00 L 35.00 29.67 L 34.67 29.67 L 34.33 29.33 L 34.00 29.33 L 33.67 29.33 L 33.33 29.00 L 33.00 28.67 L 32.67 28.67 L 32.33 28.67 L 32.00 28.33 L 31.67 28.33 L 31.33 28.00 L 31.00 28.00 L 30.67 27.67 L 30.33 27.67 L 30.00 27.67 L 29.67 27.33 L 29.33 27.33 L 29.00 27.33 L 28.67 27.33 L 28.33 27.00 L 28.00 27.00 L 27.67 27.00 L 27.33 26.67 L 27.00 26.67 L 26.67 26.67 L 26.33 26.67 L 26.00 26.67 L 25.67 26.67 L 25.33 26.33 L 25.00 26.33 L 24.67 26.33 L 24.33 26.33 L 24.00 26.33 L 23.67 26.33 L 23.33 26.33 L 23.00 26.33 L 22.67 26.33 L 22.33 26.33 Z" fill="#74223D" fill-rule="evenodd"/>
</svg>
